<svg width="130" height="36" viewBox="0 0 130 36" fill="none" xmlns="http://www.w3.org/2000/svg">
<path d="M15.7083 14.5344C13.9194 6.64289 10.191 4.54207 9.23991 3.057C8.84772 2.40279 8.50029 1.72277 8.20001 1.02161C8.14977 1.72266 8.05746 2.16433 7.46157 2.69596C6.2651 3.76273 1.18363 7.90362 0.755985 16.8701C0.357552 25.2302 6.90189 30.3853 7.76653 30.9181C8.43136 31.2452 9.24108 30.9251 9.636 30.6248C12.7907 28.4597 17.1011 22.6877 15.7118 14.5344" fill="white"/>
<path d="M8.47107 26.4664C8.30633 28.5357 8.18832 29.738 7.77002 30.9205C7.77002 30.9205 8.0446 32.8904 8.23739 34.9772H8.91975C9.08251 33.5077 9.33103 32.049 9.66403 30.6085C8.78071 30.1738 8.50496 28.2822 8.47107 26.4664Z" fill="white"/>
<path d="M9.66276 30.6096C8.77009 30.1972 8.51187 28.2658 8.47214 26.4664C8.6929 23.4982 8.75725 20.5204 8.66493 17.5455C8.61819 15.9845 8.68713 3.08739 8.28052 1.19922C8.55866 1.83872 8.87913 2.45897 9.23979 3.05584C10.1909 4.54208 13.9205 6.64291 15.7082 14.5344C17.101 22.6737 12.814 28.4305 9.66276 30.6096Z" fill="white"/>
<path d="M98.4735 25.9896C98.9981 26.4091 100.046 26.582 100.97 26.582C102.168 26.582 103.342 26.36 104.49 25.3236C105.658 24.2615 106.462 22.6362 106.462 20.0412C106.462 17.5478 105.513 15.524 103.567 14.3393C102.468 13.6487 101.045 13.3765 99.4223 13.3765C98.9549 13.3765 98.4735 13.401 98.2001 13.5249C98.088 13.6134 98.0087 13.7367 97.9746 13.8754C97.9255 14.3194 97.9255 17.7008 97.9255 19.7C97.9255 21.7494 97.9255 24.6074 97.9746 24.9579C98.0003 25.2547 98.1499 25.7758 98.4735 25.9943M93.4914 12.2665C93.9155 12.2665 95.5279 12.3401 96.278 12.3401C97.6802 12.3401 98.6488 12.2665 101.27 12.2665C103.466 12.2665 105.315 12.8589 106.636 13.9934C108.235 15.3768 109.09 17.3012 109.09 19.6462C109.09 22.9786 107.571 24.9042 106.044 25.9896C104.525 27.1253 102.549 27.7668 99.7342 27.7668C98.2363 27.7668 95.6646 27.7177 93.5182 27.6932H93.4738C93.3733 27.4957 93.6573 26.7257 93.8325 26.7059C94.4167 26.6404 94.571 26.6171 94.8397 26.5061C95.2931 26.3203 95.3994 26.0889 95.4496 25.2745C95.5244 23.7439 95.4999 21.9177 95.4999 19.8437C95.4999 18.3633 95.5244 15.475 95.4753 14.5613C95.3994 13.7971 95.0769 13.5997 94.4238 13.4513C93.9606 13.3529 93.4926 13.2788 93.0216 13.2293C92.9726 13.0809 93.3558 12.4114 93.4808 12.2665" fill="white"/>
<path d="M115.277 13.5191C115.177 13.5437 115.052 13.7914 115.052 13.9141C115.027 14.8032 115.002 17.1226 115.002 18.7268C115.009 18.7575 115.024 18.7856 115.046 18.8076C115.068 18.8296 115.097 18.8446 115.127 18.8507C115.451 18.8752 116.25 18.9009 116.924 18.9009C117.873 18.9009 118.422 18.777 118.721 18.6287C119.521 18.2337 119.89 17.3691 119.89 16.432C119.89 14.2845 118.392 13.4701 116.171 13.4701C115.87 13.4663 115.57 13.4827 115.272 13.5191M120.939 23.3923C120.939 21.2202 119.341 19.9864 116.42 19.9864C116.296 19.9864 115.368 19.9618 115.147 20.0109C115.072 20.0354 114.998 20.0845 114.998 20.1348C114.998 21.6899 114.972 24.1822 115.048 25.1695C115.098 25.589 115.398 26.1813 115.771 26.3543C116.171 26.5763 117.069 26.6253 117.693 26.6253C119.415 26.6253 120.939 25.6637 120.939 23.3923ZM110.767 12.3098C110.992 12.3098 111.656 12.3834 113.354 12.3834C114.951 12.3834 116.249 12.3344 117.794 12.3344C119.716 12.3344 122.361 13.0261 122.361 15.8887C122.361 17.2908 121.363 18.4312 120.065 18.9745C119.99 18.999 119.99 19.0481 120.065 19.0727C121.912 19.54 123.534 20.6769 123.534 22.849C123.534 24.972 122.211 26.3052 120.289 27.1441C119.121 27.6629 117.669 27.8347 116.2 27.8347C115.077 27.8347 112.067 27.7178 110.394 27.7365C110.219 27.6629 110.554 26.8719 110.704 26.7492C111.087 26.7374 111.467 26.6778 111.836 26.5716C112.434 26.4244 112.505 26.2316 112.58 25.3424C112.63 24.5771 112.63 21.8371 112.63 19.887C112.63 17.2207 112.656 15.4202 112.63 14.531C112.606 13.8404 112.356 13.6173 111.881 13.4946C111.507 13.4198 110.884 13.3462 110.385 13.2726C110.26 13.1487 110.644 12.408 110.768 12.3098" fill="white"/>
<path d="M21.2361 27.7564C21.1718 27.5984 21.1458 27.4274 21.1601 27.2575C21.1545 27.1416 21.1808 27.0264 21.2361 26.9245C21.5589 26.8779 21.8788 26.8127 22.1942 26.7293C22.6359 26.6195 22.8018 26.3788 22.8275 25.8156C22.8999 24.4848 22.9046 21.9879 22.8789 20.2329V20.1815C22.8789 19.9922 22.8789 19.7351 22.6452 19.554C22.2345 19.2964 21.7886 19.0996 21.3214 18.9698C21.1122 18.9079 20.9966 18.7981 21.0024 18.6695C21.0083 18.541 21.1403 18.3891 21.4125 18.3354C22.1358 18.2618 24.031 17.8096 24.7752 17.4661C24.8519 17.5659 24.8874 17.6914 24.8746 17.8166C24.8746 17.8937 24.8629 17.9755 24.8547 18.0596C24.8337 18.3073 24.8103 18.5889 24.8103 18.8693C24.8149 18.9034 24.8289 18.9355 24.8507 18.9621C24.8725 18.9886 24.9014 19.0085 24.9339 19.0196C24.9665 19.0306 25.0014 19.0324 25.0349 19.0246C25.0684 19.0169 25.0991 18.9999 25.1234 18.9757C26.5407 17.8645 27.8108 17.4684 28.4616 17.4684C29.5331 17.4684 30.3673 17.9802 31.0135 19.0341C31.0283 19.0595 31.0494 19.0807 31.0748 19.0957C31.1001 19.1106 31.1289 19.1188 31.1583 19.1194C31.1851 19.1191 31.2114 19.1124 31.235 19.0998C31.2586 19.0872 31.2788 19.0691 31.2939 19.0469C32.5967 18.0585 33.8878 17.4684 34.7524 17.4684C36.7948 17.4684 38.0158 18.9979 38.0158 21.5579C38.0158 22.294 38.0088 23.2276 38.0018 24.098C37.996 24.8622 37.9901 25.5784 37.9901 26.0738C37.9901 26.1907 38.1514 26.5272 38.3932 26.5938C38.6923 26.7398 39.1235 26.8146 39.6691 26.9081H39.6902C39.7311 27.0553 39.6446 27.6267 39.5616 27.7435C39.4261 27.7435 39.2392 27.7318 39.0055 27.7202C38.5813 27.6991 37.9995 27.6699 37.3229 27.6699C35.9652 27.6699 35.256 27.6956 34.5783 27.74C34.5269 27.5706 34.5094 27.0238 34.5713 26.9093C34.852 26.8654 35.1297 26.8049 35.4032 26.7282C35.8355 26.5856 35.9606 26.3893 35.9874 25.8156C35.998 25.4078 36.0762 21.8149 35.9372 20.962C35.8087 20.0775 35.1427 19.0423 33.6856 19.0423C33.1447 19.0423 32.2719 19.2678 31.4399 19.8987C31.3883 19.9572 31.3593 20.0322 31.3581 20.1102V20.1277C31.4563 20.5881 31.4563 21.1256 31.4563 21.9376C31.4563 22.405 31.4563 22.8922 31.4505 23.3795C31.4446 24.3703 31.4399 25.305 31.4563 26.0119C31.4563 26.4933 31.7472 26.609 31.9821 26.7013C32.1094 26.7293 32.2099 26.7539 32.3116 26.7772C32.5067 26.8251 32.71 26.8742 33.0126 26.9221C33.0574 27.1274 33.0534 27.3403 33.001 27.5437C32.9886 27.6201 32.9586 27.6925 32.9133 27.7552C32.1585 27.7295 31.3839 27.7073 30.2657 27.7073C29.9268 27.7073 29.3742 27.7213 28.8858 27.7342C28.4897 27.7447 28.1158 27.7552 27.9031 27.7564C27.8456 27.6207 27.82 27.4736 27.8283 27.3264C27.8164 27.1877 27.8435 27.0485 27.9066 26.9245L28.2069 26.8695C28.4686 26.8228 28.6953 26.7831 28.908 26.7293C29.2772 26.6125 29.4162 26.4115 29.4431 25.9406C29.5155 24.8423 29.5716 21.6771 29.4162 20.8849C29.1522 19.6136 28.4289 18.9687 27.2652 18.9687C26.584 18.9687 25.7228 19.297 25.0194 19.8239C24.9518 19.8898 24.8985 19.969 24.8629 20.0565C24.8273 20.1439 24.8102 20.2378 24.8126 20.3322C24.8126 20.7096 24.8126 21.1583 24.8126 21.6397C24.8126 23.2287 24.8021 25.2069 24.8407 26.0622C24.864 26.3262 24.9575 26.6394 25.4518 26.7539C25.5604 26.7854 25.7474 26.8158 25.9647 26.852C26.0897 26.873 26.2264 26.8952 26.3678 26.921C26.4128 27.2007 26.3899 27.4872 26.3012 27.7564C26.0839 27.7564 25.8163 27.7424 25.5102 27.7295C25.0428 27.7085 24.4586 27.6828 23.7984 27.6828C23.0179 27.6828 22.4746 27.7085 22.0388 27.7295C21.7455 27.7435 21.492 27.7552 21.2384 27.7564" fill="white"/>
<path d="M46.2929 18.5246C45.8712 18.5158 45.4564 18.6325 45.1011 18.8599C44.2341 19.3869 43.7925 20.4396 43.7925 21.9866C43.7925 24.882 45.2425 26.9045 47.3188 26.9045C47.8755 26.9222 48.4185 26.7299 48.8401 26.3659C49.478 25.8459 49.8169 24.7827 49.8169 23.2941C49.8169 20.442 48.3996 18.5246 46.2906 18.5246M46.6902 27.9783C42.9395 27.9783 41.604 25.2267 41.604 22.6526C41.604 20.8544 42.3389 19.4488 43.789 18.4732C44.8046 17.8444 45.9703 17.4998 47.1645 17.4753C50.026 17.4753 52.0252 19.5329 52.0252 22.4809C52.0252 24.4836 51.2271 26.0656 49.7164 27.0541C48.9908 27.4981 47.7301 27.9783 46.6902 27.9783Z" fill="white"/>
<path d="M84.4771 18.5246C84.0545 18.515 83.6387 18.6318 83.2829 18.8599C82.416 19.3869 81.9743 20.4396 81.9743 21.9866C81.9743 24.882 83.4243 26.9045 85.5006 26.9045C86.0589 26.9234 86.6038 26.731 87.0266 26.3659C87.6645 25.8459 88.0022 24.7827 88.0022 23.2941C88.0022 20.442 86.5861 18.5246 84.4771 18.5246ZM84.8767 27.9783C81.126 27.9783 79.7905 25.2267 79.7905 22.6538C79.7905 20.8533 80.5255 19.4488 81.9766 18.4732C82.9916 17.8441 84.1571 17.4994 85.3511 17.4753C88.2125 17.4753 90.2117 19.5341 90.2117 22.4797C90.2117 24.4847 89.4137 26.0656 87.9029 27.0529C87.1773 27.4981 85.9166 27.9783 84.8767 27.9783Z" fill="white"/>
<path d="M71.8487 18.4265C70.6931 18.4265 69.9454 19.339 69.9454 20.7517C69.9454 22.1643 70.5892 23.8433 72.399 23.8433C72.7098 23.8433 73.273 23.7054 73.5523 23.3982C73.9729 23.0114 74.2533 22.2122 74.2533 21.3686C74.2533 19.526 73.356 18.4265 71.8546 18.4265M71.705 28.1758C71.3785 28.1723 71.0566 28.2528 70.7703 28.4095C69.8554 28.9937 69.4312 29.5779 69.4312 30.2568C69.4312 30.8924 69.6778 31.3984 70.2082 31.847C70.8509 32.3915 71.7178 32.6567 72.8571 32.6567C75.0993 32.6567 76.1041 31.4509 76.1041 30.2568C76.1041 29.4249 75.687 28.8675 74.8282 28.5521C74.1669 28.3102 73.0615 28.177 71.7085 28.177M71.8581 33.9023C70.512 33.9023 69.5422 33.6184 68.7138 32.9804C67.9076 32.3588 67.5454 31.4357 67.5454 30.7978C67.5541 30.3867 67.711 29.9925 67.9871 29.6878C68.2208 29.4214 68.7641 28.9225 70.0201 28.059C70.0396 28.0507 70.0562 28.0369 70.0678 28.0192C70.0795 28.0015 70.0856 27.9808 70.0856 27.9597C70.086 27.9361 70.0783 27.913 70.0639 27.8943C70.0494 27.8756 70.0291 27.8624 70.0061 27.8569C68.9721 27.4608 68.6601 26.8053 68.5654 26.4548C68.5654 26.4419 68.5654 26.422 68.5549 26.3998C68.5257 26.262 68.4977 26.1311 68.6858 25.9967C68.8307 25.8939 69.062 25.756 69.3097 25.61C69.6594 25.4164 69.9948 25.1981 70.3134 24.9568C70.3305 24.9384 70.3432 24.9163 70.3505 24.8923C70.3578 24.8682 70.3594 24.8428 70.3554 24.818C70.3513 24.7932 70.3416 24.7696 70.3271 24.7491C70.3125 24.7286 70.2934 24.7118 70.2713 24.6998C68.7407 24.1857 67.9695 23.0488 67.9695 21.3113C67.9648 20.7696 68.0909 20.2346 68.337 19.7519C68.5831 19.2693 68.9421 18.8531 69.3833 18.5387C69.9991 18.0514 71.5449 17.4661 72.5463 17.4661H72.6047C73.6341 17.4906 74.2148 17.7068 75.0186 18.0035C75.4759 18.1689 75.9605 18.2458 76.4465 18.2302C77.2982 18.2302 77.671 17.9603 77.9911 17.646C78.043 17.7876 78.0707 17.9369 78.0729 18.0877C78.0925 18.4469 77.9949 18.8028 77.7948 19.1019C77.6207 19.3437 77.2106 19.519 76.8355 19.519C76.797 19.519 76.7596 19.519 76.7187 19.5131C76.5213 19.4992 76.3257 19.4668 76.1345 19.4162L76.0387 19.45C76.0083 19.4944 76.0282 19.5435 76.0527 19.6066C76.0587 19.619 76.0634 19.6319 76.0667 19.6452C76.1351 19.957 76.1816 20.2733 76.2058 20.5916C76.2058 22.4085 75.4895 23.1995 74.7149 23.7861C73.9659 24.348 73.0764 24.6925 72.1443 24.7816C72.1245 24.7816 72.0275 24.7897 71.8452 24.8061C71.7284 24.8166 71.5765 24.8306 71.5543 24.8306H71.5321C71.3638 24.8774 70.9245 25.0865 70.9245 25.4756C70.9245 25.7981 71.1231 26.1989 72.0731 26.2713L72.6876 26.3145C73.9402 26.4022 75.5047 26.5108 76.2408 26.7597C76.7291 26.9314 77.1508 27.2527 77.446 27.6779C77.7411 28.1031 77.8947 28.6106 77.8848 29.1281C77.8848 30.7581 76.7257 32.291 74.785 33.2281C73.8697 33.6653 72.8676 33.8901 71.8534 33.8859" fill="white"/>
<path d="M66.1165 26.8871C65.5673 26.8135 65.1666 26.7387 64.6933 26.5167C64.6005 26.4205 64.5393 26.2982 64.5181 26.1662C64.4678 25.4008 64.4678 23.1797 64.4678 21.7262C64.4678 20.5402 64.2692 19.5061 63.7668 18.7642C63.1674 17.9241 62.3191 17.431 61.2208 17.431C60.2475 17.431 58.9494 18.097 57.8768 19.0107C57.8511 19.0353 57.6863 19.1918 57.6898 18.9488C57.6933 18.7058 57.7307 18.2127 57.7541 17.8972C57.7645 17.8134 57.7551 17.7283 57.7267 17.6488C57.6983 17.5693 57.6516 17.4975 57.5905 17.4392C56.8894 17.7897 54.923 18.2571 54.1951 18.3284C53.6646 18.4312 53.5302 18.9418 54.0969 19.1182H54.1051C54.5587 19.2433 54.9917 19.4338 55.3904 19.6838C55.6147 19.8567 55.5902 20.1032 55.5902 20.3007C55.6147 21.954 55.6147 24.4965 55.5399 25.8787C55.5154 26.4221 55.3647 26.6195 54.9651 26.7188L55.0024 26.706C54.6981 26.7822 54.3895 26.84 54.0782 26.8789C53.9532 27.0016 53.9532 27.7178 54.0782 27.8662C54.3283 27.8662 55.5972 27.7926 56.6488 27.7926C58.0953 27.7926 58.8442 27.8662 59.2193 27.8662C59.37 27.6933 59.4191 27.0273 59.3198 26.8789C58.9741 26.8633 58.6309 26.8136 58.2951 26.7305C57.8966 26.6324 57.7961 26.4337 57.7716 25.9909C57.7225 24.8295 57.7225 22.3618 57.7225 20.6828C57.7225 20.2154 57.8464 19.9922 57.9959 19.8649C58.4949 19.4209 59.3198 19.1252 60.043 19.1252C60.7441 19.1252 61.2114 19.3472 61.562 19.6429C61.9703 19.9991 62.2262 20.4985 62.277 21.038C62.3764 21.9727 62.3507 23.8527 62.3507 25.478C62.3507 26.3671 62.277 26.5903 61.9522 26.6885C61.8027 26.7621 61.4031 26.8368 60.9287 26.8859C60.7791 27.0343 60.8282 27.7248 60.9287 27.8732C61.5772 27.8732 62.3308 27.7996 63.4244 27.7996C64.7973 27.7996 65.6713 27.8732 66.0207 27.8732C66.1702 27.7003 66.2205 27.0553 66.1212 26.8859" fill="white"/>
</svg>
