<svg width="90" height="48" viewBox="0 0 90 48" fill="none" xmlns="http://www.w3.org/2000/svg">
<g clip-path="url(#clip0_13_587)">
<path d="M0.169922 43.0654H3.12584V31.3928L7.70198 41.5685C8.24191 42.8002 8.98102 43.2359 10.4304 43.2359C11.8801 43.2359 12.5906 42.8002 13.1308 41.5685L17.7067 31.3928V43.0654H20.6628V31.4119C20.6628 30.275 20.2079 29.7253 19.2701 29.4413C17.0247 28.7402 15.5182 29.3465 14.836 30.8624L10.3452 40.9051L5.99656 30.8624C5.34287 29.3465 3.80804 28.7402 1.56268 29.4413C0.624661 29.7253 0.169922 30.275 0.169922 31.4119V43.0654Z" fill="white"/>
<path d="M23.1206 33.5644H26.0756V39.9951C26.048 40.3445 26.1877 41.1644 27.807 41.19C28.6332 41.2029 34.183 41.19 34.2348 41.19V33.5331H37.1967C37.2103 33.5331 37.1937 43.9749 37.194 44.0194C37.2103 46.5946 33.9986 47.1539 32.5184 47.1972H23.1848V45.2087C23.2012 45.2087 32.5114 45.2105 32.5349 45.2082C34.4374 45.0073 34.2127 44.0617 34.2125 43.7434V42.9681H27.9297C25.0067 42.9412 23.1452 41.6655 23.1222 40.1979C23.1201 40.0619 23.1853 33.6286 23.1206 33.5644Z" fill="white"/>
<path d="M39.4747 43.0653H47.9729C48.9678 43.0653 49.9343 42.857 50.7017 42.4968C51.9806 41.9096 52.606 41.1138 52.606 40.0714V37.9114C52.606 37.0586 51.8954 36.2626 50.5026 35.7323C49.7635 35.4478 48.8541 35.2963 47.9729 35.2963H44.3916C43.1981 35.2963 42.6296 34.9363 42.4875 34.1406C42.459 34.0457 42.459 33.9698 42.459 33.8752V32.53C42.459 32.4541 42.459 32.3781 42.4875 32.2835C42.6296 31.6772 42.9424 31.5064 43.9938 31.4118C44.0792 31.4118 44.1927 31.3927 44.2781 31.3927H52.7197V29.4224H44.4201C43.2264 29.4224 42.601 29.4981 42.0327 29.6684C40.2705 30.2181 39.503 31.0898 39.503 32.6057V34.33C39.503 35.6565 41.0096 36.7934 43.539 37.0586C43.8235 37.0774 44.1075 37.0963 44.3916 37.0963H47.4613C47.5752 37.0963 47.6889 37.0963 47.7741 37.1154C48.712 37.1914 49.1098 37.3617 49.3943 37.7028C49.5646 37.8732 49.6215 38.044 49.6215 38.2334V39.9577C49.6215 40.1662 49.4795 40.4316 49.1954 40.6588C48.9395 40.8862 48.5132 41.0379 47.9446 41.0759C47.8309 41.0759 47.7458 41.0947 47.632 41.0947H39.4747V43.0653Z" fill="white"/>
<path d="M71.0461 39.6356C71.0461 41.6631 72.5524 42.8001 75.5938 43.0276C75.8778 43.0464 76.1623 43.0653 76.4464 43.0653H84.1491V41.0947H76.3895C74.6558 41.0947 74.0021 40.6588 74.0021 39.6168V29.4224H71.0461V39.6356Z" fill="white"/>
<path d="M54.4926 39.739V32.7135C54.4926 30.9287 55.7459 29.8462 58.2235 29.5044C58.4799 29.4666 58.7649 29.4475 59.0211 29.4475H64.6319C64.9167 29.4475 65.1733 29.4666 65.4581 29.5044C67.9359 29.8462 69.189 30.9287 69.189 32.7135V39.739C69.189 41.1871 68.6568 41.9621 67.4302 42.4671L70.342 45.0953H66.9098L64.5541 42.9689L62.1826 43.1192H59.0211C58.4799 43.1192 57.9105 43.043 57.2837 42.8722C55.4041 42.3596 54.4926 41.3722 54.4926 39.739ZM57.6831 39.5683C57.6831 39.6633 57.7114 39.7582 57.7399 39.8721C57.9107 40.6885 58.6797 41.1443 59.8474 41.1443H62.5329L60.0661 38.9173H63.4983L65.6498 40.8596C66.0462 40.6483 66.3072 40.3251 66.3983 39.9101C66.4266 39.8152 66.4266 39.7202 66.4266 39.6253V32.8845C66.4266 32.8086 66.4266 32.7135 66.3983 32.6185C66.2273 31.8591 65.4583 31.4224 64.3191 31.4224H59.8474C58.5375 31.4224 57.6831 31.9921 57.6831 32.8845V39.5683Z" fill="white"/>
<path d="M86.7497 26.1532C84.9326 26.104 83.5446 26.2729 82.3581 26.7733C82.0209 26.9156 81.4832 26.9193 81.4281 27.3419C81.6134 27.5362 81.6422 27.8262 81.7895 28.0651C82.0729 28.5236 82.5512 29.138 82.9779 29.4602C83.4443 29.8122 83.9249 30.1887 84.4249 30.4935C85.314 31.0358 86.3068 31.3454 87.1631 31.8886C87.6676 32.2088 88.1689 32.6121 88.6613 32.9734C88.9046 33.1521 89.0682 33.4299 89.3845 33.5418C89.3845 33.5247 89.3845 33.5075 89.3845 33.4902C89.2183 33.2787 89.1755 32.9877 89.0229 32.7667C88.7992 32.543 88.5752 32.319 88.3512 32.0951C87.6945 31.2234 86.8608 30.4578 85.9746 29.8218C85.268 29.3145 83.6862 28.6293 83.3913 27.8068C83.3741 27.7896 83.357 27.7723 83.3396 27.7551C83.8407 27.6987 84.4274 27.5173 84.8898 27.3934C85.6667 27.1851 86.3609 27.239 87.1631 27.0318C87.5247 26.9285 87.8863 26.8249 88.2481 26.7218C88.2481 26.6527 88.2481 26.5841 88.2481 26.5151C87.8425 26.0989 87.5534 25.5483 87.1113 25.1718C85.9544 24.1866 84.6916 23.2023 83.3913 22.3816C82.6702 21.9264 81.7789 21.6306 81.0147 21.2449C80.7576 21.1152 80.306 21.0477 80.1362 20.8315C79.7347 20.3196 79.5161 19.6709 79.2065 19.0748C78.5578 17.8259 77.9209 16.4619 77.3464 15.1481C76.9544 14.2521 76.6984 13.3684 76.2098 12.5646C73.8638 8.70752 71.3385 6.37942 67.4266 4.09112C66.5943 3.60448 65.5921 3.41228 64.533 3.1612C63.9649 3.12681 63.3964 3.09219 62.8281 3.0578C62.4812 2.91281 62.1203 2.48841 61.7948 2.28274C60.4989 1.46407 57.1749 -0.31667 56.215 2.02446C55.609 3.50219 57.1208 4.94419 57.6615 5.69294C58.041 6.21825 58.5269 6.80719 58.7981 7.39792C58.9765 7.78614 59.0073 8.17547 59.1599 8.58636C59.5356 9.59834 59.8622 10.6993 60.3481 11.6347C60.5937 12.1078 60.8644 12.6064 61.1749 13.0297C61.3653 13.2893 61.6915 13.4037 61.743 13.8047C61.424 14.2512 61.4058 14.9442 61.2265 15.5097C60.419 18.0559 60.7235 21.2206 61.8982 23.105C62.2586 23.6834 63.1075 24.9241 64.2747 24.4483C65.2958 24.0324 65.0677 22.7436 65.3598 21.6066C65.4259 21.3487 65.3854 21.1592 65.5147 20.9866C65.5147 21.0037 65.5147 21.021 65.5147 21.0383C65.8248 21.6583 66.1348 22.2782 66.4449 22.898C67.1331 24.0066 68.3547 25.1651 69.3898 25.9468C69.9266 26.3521 70.3492 27.053 71.0432 27.2901C71.0432 27.2728 71.0432 27.2558 71.0432 27.2383C71.0257 27.2383 71.0086 27.2383 70.9914 27.2383C70.8569 27.0286 70.6466 26.9418 70.4749 26.7733C70.0704 26.377 69.6209 25.8842 69.2864 25.43C68.345 24.1518 67.5129 22.7528 66.7549 21.2966C66.3929 20.6013 66.0782 19.8341 65.773 19.1265C65.6554 18.8536 65.6567 18.4411 65.4116 18.2998C65.0774 18.8183 64.585 19.2375 64.3265 19.8498C63.9131 20.8286 63.8597 22.0222 63.7067 23.2599C63.616 23.2923 63.6563 23.27 63.6031 23.3114C62.8835 23.1379 62.6306 22.3971 62.3633 21.7616C61.6868 20.1544 61.5612 17.5665 62.1564 15.7165C62.3104 15.238 63.0065 13.7303 62.7247 13.2882C62.5903 12.8469 62.1465 12.5918 61.8982 12.2546C61.5909 11.8379 61.284 11.2892 61.0713 10.8079C60.5178 9.55474 60.2593 8.14803 59.6765 6.88138C59.3979 6.2758 58.9268 5.66304 58.5398 5.12469C58.1115 4.52835 57.6318 4.0891 57.2999 3.36778C57.1818 3.11153 57.0213 2.70128 57.1965 2.43784C57.2522 2.26002 57.3307 2.18586 57.5066 2.12785C57.8063 1.89678 58.6409 2.20473 58.953 2.33444C59.7817 2.67858 60.4731 3.00631 61.1749 3.47118C61.5119 3.69461 61.8526 4.12664 62.2598 4.24624C62.4147 4.24624 62.5698 4.24624 62.7247 4.24624C63.4521 4.41346 64.2669 4.29817 64.9464 4.5045C66.1475 4.86956 67.2238 5.43737 68.2014 6.05462C71.1794 7.93495 73.6143 10.6117 75.2798 13.8047C75.5478 14.3188 75.6638 14.8095 75.8997 15.3548C76.3759 16.4545 76.9758 17.5861 77.4495 18.6614C77.9223 19.7343 78.3831 20.8171 79.0513 21.7099C79.4028 22.1793 80.7597 22.4311 81.3764 22.6916C81.8086 22.8743 82.5169 23.0647 82.9264 23.3114C83.7085 23.7833 84.4663 24.3449 85.1999 24.8617C85.5665 25.12 86.6935 25.6864 86.7497 26.1532Z" fill="white"/>
<path fill-rule="evenodd" clip-rule="evenodd" d="M63.6549 6.46796C63.276 6.46098 63.0081 6.50932 62.7247 6.57114C62.7247 6.58843 62.7247 6.60574 62.7247 6.62284C62.742 6.62284 62.7593 6.62284 62.7765 6.62284C62.9572 6.99417 63.2762 7.23312 63.4997 7.553C63.6719 7.91468 63.8441 8.27636 64.0165 8.63781C64.0335 8.6207 64.051 8.60342 64.0681 8.58632C64.388 8.36086 64.5346 8.0001 64.533 7.4496C64.4048 7.31472 64.3859 7.14546 64.2748 6.9845C64.127 6.77007 63.8411 6.64823 63.6549 6.46796Z" fill="white"/>
</g>
<defs>
<clipPath id="clip0_13_587">
<rect width="90" height="46.4962" fill="white" transform="translate(0 0.751953)"/>
</clipPath>
</defs>
</svg>
