<svg width="70" height="80" viewBox="0 0 70 80" fill="none" xmlns="http://www.w3.org/2000/svg">
<g clip-path="url(#clip0_13_572)">
<path d="M35 79.375C33.9531 79.375 32.8906 79.0938 31.9688 78.5625L22.3281 72.8594C20.8906 72.0469 21.5938 71.7656 22.0625 71.6094C23.9844 70.9375 24.375 70.7969 26.4219 69.625C26.6406 69.5 26.9219 69.5469 27.1406 69.6875L34.5469 74.0781C34.8125 74.2344 35.1875 74.2344 35.4375 74.0781L64.2969 57.4219C64.5625 57.2656 64.7344 56.9531 64.7344 56.6406V23.3281C64.7344 23 64.5625 22.7031 64.2812 22.5312L35.4375 5.89063C35.1719 5.73438 34.8125 5.73438 34.5469 5.89063L5.71875 22.5469C5.4375 22.7031 5.26562 23.0156 5.26562 23.3437V56.6406C5.26562 56.9531 5.4375 57.2656 5.71875 57.4063L13.625 61.9688C17.9219 64.1094 20.5469 61.5938 20.5469 59.0469V26.1719C20.5469 25.7031 20.9219 25.3437 21.3906 25.3437H25.0469C25.5 25.3437 25.8906 25.7031 25.8906 26.1719V59.0625C25.8906 64.7813 22.7656 68.0625 17.3438 68.0625C15.6719 68.0625 14.3594 68.0625 10.7031 66.25L3.14062 61.8906C1.26562 60.8125 0.109375 58.7969 0.109375 56.625V23.3281C0.109375 21.1719 1.26562 19.1406 3.14062 18.0625L31.9688 1.40625C33.7969 0.375 36.2187 0.375 38.0312 1.40625L66.8906 18.0781C68.7656 19.1562 69.9219 21.1719 69.9219 23.3437V56.6406C69.9219 58.7969 68.7656 60.8125 66.8906 61.9063L38.0312 78.5625C37.1094 79.0938 36.0625 79.375 35 79.375ZM58.2969 46.5469C58.2969 40.3125 54.0781 38.6562 45.2187 37.4844C36.25 36.2969 35.3438 35.6875 35.3438 33.5937C35.3438 31.8594 36.1094 29.5469 42.75 29.5469C48.6719 29.5469 50.8594 30.8281 51.7656 34.8281C51.8437 35.2031 52.1875 35.4844 52.5781 35.4844H56.3281C56.5625 35.4844 56.7812 35.3906 56.9375 35.2187C57.0937 35.0469 57.1719 34.8125 57.1562 34.5781C56.5781 27.6875 52 24.4844 42.75 24.4844C34.5156 24.4844 29.6094 27.9531 29.6094 33.7812C29.6094 40.0937 34.5 41.8438 42.3906 42.625C51.8437 43.5469 52.5781 44.9375 52.5781 46.7969C52.5781 50.0156 49.9844 51.3906 43.9062 51.3906C36.2656 51.3906 34.5938 49.4687 34.0313 45.6719C33.9688 45.2656 33.625 44.9688 33.2031 44.9688H29.4688C29 44.9688 28.6406 45.3438 28.6406 45.7969C28.6406 50.6563 31.2812 56.4531 43.9219 56.4531C53.0469 56.4375 58.2969 52.8281 58.2969 46.5469Z" fill="#2190B4"/>
</g>
<defs>
<clipPath id="clip0_13_572">
<rect width="70" height="80" fill="#2190B4"/>
</clipPath>
</defs>
</svg>
