<svg width="70" height="75" viewBox="0 0 70 75" fill="none" xmlns="http://www.w3.org/2000/svg">
<path d="M41.5041 38.7558C41.5041 40.4848 40.8173 42.1431 39.5951 43.3663C38.3726 44.5892 36.7146 45.2767 34.9854 45.2774C33.2558 45.2774 31.5969 44.5903 30.3739 43.367C29.1508 42.1441 28.4637 40.4855 28.4637 38.7558C28.4637 37.0264 29.1505 35.3682 30.3729 34.1452C31.5953 32.9222 33.2534 32.2348 34.9825 32.234C36.7122 32.234 38.3709 32.9211 39.5941 34.1442C40.817 35.3672 41.5041 37.0261 41.5041 38.7558ZM49.2275 7.57654C45.3015 7.57654 40.1653 10.3765 34.9708 15.224C29.7792 10.4028 24.64 7.63488 20.7171 7.63488C19.5212 7.63488 18.4333 7.90613 17.4912 8.44569C13.4808 10.7586 12.5825 17.9657 14.6533 27.0103C5.775 29.7519 0 34.1357 0 38.7558C0 43.3933 5.80415 47.7886 14.7087 50.5099C12.6554 59.5896 13.5712 66.8083 17.5904 69.1183C18.5237 69.6636 19.6029 69.9202 20.8046 69.9202C24.7275 69.9202 29.8667 67.1201 35.0612 62.267C40.2528 67.0911 45.3922 69.8589 49.315 69.8589C50.511 69.8589 51.5987 69.5964 52.5409 69.0571C56.5484 66.7471 57.4497 59.5399 55.3788 50.4923C64.225 47.7739 70 43.3814 70 38.7558C70 34.1182 64.1959 29.7228 55.2912 26.9957C57.3447 17.9249 56.4288 10.7003 52.4097 8.38738C51.4822 7.85069 50.4056 7.57944 49.2275 7.57654ZM49.2128 10.7557V10.7732C49.869 10.7732 50.3972 10.9015 50.8403 11.1436C52.7828 12.2578 53.626 16.4957 52.9697 21.9469C52.8122 23.2886 52.5553 24.7032 52.2403 26.1469C49.4403 25.4586 46.3897 24.9307 43.1785 24.5894C41.2535 21.9499 39.2553 19.5524 37.2428 17.4524C41.8863 13.1357 46.2465 10.7674 49.2159 10.7586L49.2128 10.7557ZM20.7171 10.814C23.6687 10.814 28.0496 13.1707 32.7046 17.464C30.7037 19.564 28.7088 21.9469 26.8129 24.5865C23.5842 24.9278 20.5304 25.4557 17.7333 26.1557C17.4067 24.7265 17.1646 23.344 16.9925 22.014C16.3217 16.5657 17.15 12.3307 19.075 11.2019C19.6292 10.9394 20.2417 10.8286 20.7171 10.814ZM34.9563 19.7099C36.2835 21.0749 37.6103 22.6032 38.9228 24.2715C37.6397 24.2132 36.3272 24.1724 35 24.1724C33.6583 24.1724 32.3312 24.2015 31.0333 24.2715C32.3167 22.6032 33.6438 21.0778 34.9563 19.7099ZM35 27.369C37.1584 27.369 39.3078 27.4682 41.4225 27.6403C42.6066 29.3378 43.7615 31.149 44.8728 33.0653C45.9578 34.9319 46.9437 36.8276 47.8422 38.7411C46.9437 40.6514 45.9578 42.562 44.8875 44.4286C43.779 46.3536 42.6328 48.1851 41.4459 49.8826C39.3225 50.0664 37.17 50.1686 35 50.1686C32.8417 50.1686 30.6921 50.0664 28.5775 49.8973C27.3933 48.1998 26.2383 46.3858 25.1271 44.4723C24.0421 42.6058 23.0563 40.7099 22.1579 38.7964C23.0417 36.8802 24.0421 34.9669 25.1125 33.0974C26.2208 31.1724 27.3671 29.3465 28.5542 27.649C30.6775 27.4624 32.83 27.3632 35 27.3632V27.369ZM24.3979 28.1099C23.6979 29.2094 22.9979 30.3353 22.3446 31.4932C21.6883 32.6307 21.0758 33.774 20.4925 34.9174C19.7196 33.004 19.0633 31.0965 18.5208 29.2386C20.3875 28.8011 22.3562 28.4103 24.3979 28.1099ZM45.5728 28.1099C47.6 28.4103 49.5541 28.7807 51.4238 29.2386C50.8988 31.0819 50.2425 32.9778 49.4987 34.8765C48.9153 33.739 48.3028 32.5928 47.6322 31.4524C46.9759 30.309 46.2728 29.1949 45.5728 28.1099ZM54.5066 30.0786C55.9185 30.5161 57.26 31.0032 58.5172 31.5311C63.5688 33.6894 66.8353 36.5126 66.8353 38.7526C66.821 40.9926 63.5541 43.8276 58.5025 45.9714C57.2775 46.4964 55.936 46.9689 54.5503 47.4095C53.7338 44.6151 52.6662 41.7046 51.3422 38.7177C52.6547 35.7514 53.7047 32.8553 54.5066 30.0728V30.0786ZM15.4379 30.0903C16.2488 32.8903 17.3192 35.7983 18.6462 38.782C17.3337 41.7483 16.2779 44.6445 15.4788 47.427C14.0671 46.9895 12.7254 46.4995 11.4829 45.9686C6.43125 43.8189 3.16458 40.9926 3.16458 38.7526C3.16458 36.5126 6.43125 33.6719 11.4829 31.5311C12.7079 31.0061 14.0496 30.5336 15.4379 30.0903ZM49.4987 42.5736C50.2715 44.4898 50.9278 46.4001 51.4703 48.2551C49.6038 48.7133 47.6322 49.1011 45.5903 49.3926C46.2903 48.2989 46.9903 47.1702 47.6466 46.0152C48.3028 44.8777 48.9125 43.717 49.4987 42.5736ZM20.4925 42.632C21.0758 43.7751 21.6883 44.9158 22.3592 46.0589C23.03 47.1964 23.7154 48.3108 24.4154 49.3926C22.3883 49.0951 20.4342 48.722 18.5646 48.267C19.0896 46.4295 19.7487 44.5276 20.4896 42.6289L20.4925 42.632ZM52.2666 51.3439C52.5935 52.7821 52.85 54.1674 53.0075 55.4946C53.6785 60.9427 52.85 65.1777 50.925 66.3096C50.4963 66.5721 49.9391 66.6827 49.2828 66.6827C46.3313 66.6827 41.9503 64.3289 37.2953 60.0327C39.2962 57.9327 41.2913 55.5527 43.1872 52.9161C46.416 52.5721 49.4697 52.0439 52.2666 51.3439ZM17.7625 51.3733C20.5625 52.0558 23.6133 52.5836 26.8246 52.9248C28.7496 55.5645 30.7475 57.9621 32.76 60.0589C28.1079 64.3846 23.7417 66.7527 20.7725 66.7527C20.1308 66.7383 19.5883 66.6071 19.1596 66.3677C17.2171 65.2596 16.3742 61.0186 17.0304 55.5673C17.1879 54.2258 17.4475 52.8139 17.7625 51.3733ZM31.0625 53.2398C32.3458 53.2983 33.6583 53.3389 34.9854 53.3389C36.3272 53.3389 37.654 53.3098 38.9522 53.2398C37.6687 54.9083 36.3415 56.4336 35.029 57.8046C33.7021 56.4336 32.375 54.9083 31.0625 53.2398Z" fill="#2190B4"/>
</svg>
