<svg width="125" height="34" viewBox="0 0 125 34" fill="none" xmlns="http://www.w3.org/2000/svg">
<g clip-path="url(#clip0_13_574)">
<path d="M41.1737 23.2792C40.7905 23.0723 40.4956 22.6292 40.4956 22.0387C40.4956 21.2426 41.1148 20.5971 41.9433 20.5971C42.2368 20.5971 42.5035 20.6835 42.7086 20.8017C44.2155 21.8058 45.7798 22.3078 47.1943 22.3078C48.7285 22.3078 49.6136 21.6578 49.6136 20.6237V20.5652C49.6136 19.3553 47.9622 18.9428 46.1312 18.3826C43.8309 17.7328 41.2635 16.7896 41.2635 13.8087V13.7489C41.2635 10.7975 43.7126 8.99814 46.8112 8.99814C48.4642 8.99814 50.2044 9.47095 51.7094 10.2665C52.2125 10.5329 52.5647 11.0053 52.5647 11.6233C52.5647 12.4505 51.9166 13.0716 51.0905 13.0716C50.7938 13.0716 50.6169 13.0123 50.3834 12.8936C49.1124 12.2436 47.8145 11.8298 46.723 11.8298C45.3351 11.8298 44.5382 12.4806 44.5382 13.3664V13.4238C44.5382 14.5751 46.2202 15.046 48.0503 15.6373C50.3225 16.346 52.8899 17.3782 52.8899 20.1814V20.2412C52.8899 23.5164 50.3508 25.1376 47.1055 25.1376C45.1298 25.1376 42.9755 24.52 41.1737 23.2792Z" fill="#2190B4"/>
<path d="M66.7227 17.0834V17.0236C66.7227 14.0151 64.6861 12.0378 62.2676 12.0378C59.8479 12.0378 57.7234 14.0443 57.7234 17.0236V17.0834C57.7234 20.0637 59.8479 22.0722 62.2676 22.0722C64.7166 22.0722 66.7227 20.1528 66.7227 17.0834ZM54.2405 10.797C54.2405 9.79555 55.0068 8.99762 56.0122 8.99762C57.0147 8.99762 57.8116 9.79555 57.8116 10.797V11.8609C58.9626 10.2386 60.5851 8.93975 63.1234 8.93975C66.7819 8.93975 70.3529 11.8303 70.3529 17.0236V17.0834C70.3529 22.2481 66.8117 25.1687 63.1234 25.1687C60.5269 25.1687 58.9036 23.8689 57.8116 22.426V27.941C57.8116 28.948 57.0147 29.7155 56.0122 29.7155C55.0389 29.7155 54.2405 28.948 54.2405 27.941V10.797Z" fill="#2190B4"/>
<path d="M71.7053 10.7992C71.7053 9.7978 72.4703 8.99981 73.474 8.99981C74.4798 8.99981 75.2754 9.7978 75.2754 10.7992V11.6577C75.4536 10.3205 77.635 8.99981 79.1998 8.99981C80.3204 8.99981 80.9705 9.73694 80.9705 10.7692C80.9705 11.7127 80.3503 12.3335 79.5534 12.4807C77.0155 12.9235 75.2754 15.1441 75.2754 18.2164V23.3643C75.2754 24.3392 74.4798 25.1355 73.474 25.1355C72.5009 25.1355 71.7053 24.3678 71.7053 23.3643V10.7992Z" fill="#2190B4"/>
<path d="M82.321 10.8064C82.321 9.80338 83.0908 9.00538 84.0925 9.00538C85.0955 9.00538 85.8925 9.80338 85.8925 10.8064V23.3673C85.8925 24.3692 85.0955 25.1355 84.0925 25.1355C83.118 25.1355 82.321 24.3692 82.321 23.3673V10.8064Z" fill="#2190B4"/>
<path d="M87.6924 10.8132C87.6924 9.81019 88.4601 9.0141 89.4618 9.0141C90.4662 9.0141 91.2625 9.81019 91.2625 10.8132V11.5459C92.2675 10.0995 93.7112 9.00505 96.1307 9.00505C99.6423 9.00505 101.68 11.3668 101.68 14.9664V23.365C101.68 24.3678 100.911 25.136 99.9081 25.136C98.9051 25.136 98.1088 24.3678 98.1088 23.365V16.0586C98.1088 13.6401 96.8991 12.2521 94.774 12.2521C92.7088 12.2521 91.2625 13.698 91.2625 16.1195V23.365C91.2625 24.3678 90.4662 25.136 89.4618 25.136C88.4887 25.136 87.6924 24.3678 87.6924 23.365V10.8132Z" fill="#2190B4"/>
<path d="M111.118 22.0396C108.666 22.0396 106.661 20.1209 106.661 17.0516V16.9937C106.661 13.9843 108.696 12.007 111.118 12.007C113.538 12.007 115.662 14.0141 115.662 16.9937V17.0516C115.662 20.0327 113.538 22.0396 111.118 22.0396ZM117.37 8.96687C116.369 8.96687 115.572 9.76534 115.572 10.7671V11.829C114.42 10.2068 112.799 8.90866 110.262 8.90866C106.601 8.90866 103.031 11.7993 103.031 16.9937V17.0516C103.031 22.2163 106.572 25.136 110.262 25.136C112.843 25.136 114.463 23.8518 115.555 22.416C115.376 25.2218 113.659 26.7033 110.646 26.7033C108.847 26.7033 107.282 26.2591 105.864 25.4609C105.687 25.3746 105.484 25.3162 105.217 25.3162C104.391 25.3162 103.71 25.9956 103.71 26.7899C103.71 27.4691 104.094 27.9706 104.716 28.2067C106.602 29.1218 108.548 29.5941 110.733 29.5941C113.538 29.5941 115.722 28.916 117.138 27.4988C118.434 26.1994 119.142 24.2542 119.142 21.6265V10.7671C119.142 9.76534 118.375 8.96687 117.37 8.96687Z" fill="#2190B4"/>
<path d="M85.9066 4.70566C85.9066 5.69855 85.1001 6.50586 84.106 6.50586C83.1111 6.50586 82.3066 5.69855 82.3066 4.70566C82.3066 3.71005 83.1111 2.90628 84.106 2.90628C85.1001 2.90628 85.9066 3.71005 85.9066 4.70566Z" fill="#2190B4"/>
<path d="M29.1943 24.069C25.2359 29.3431 16.7801 27.5628 11.3589 27.8189C11.3589 27.8189 10.3992 27.8723 9.43253 28.0314C9.43253 28.0314 9.79804 27.8755 10.2642 27.7148C14.0718 26.398 15.8712 26.1334 18.1848 24.945C22.5318 22.7183 26.8581 17.8678 27.7384 12.8291C26.0838 17.6752 21.0514 21.8462 16.4693 23.5399C13.333 24.6972 7.6613 25.8235 7.66048 25.824C7.66314 25.828 7.43445 25.7052 7.43125 25.7026C3.57405 23.826 3.46276 15.4719 10.4682 12.7789C13.5397 11.5974 16.4776 12.2463 19.798 11.456C23.3393 10.614 27.4409 7.95954 29.108 4.4891C30.977 10.0326 33.2221 18.7054 29.1943 24.069ZM29.2631 2.77132C28.7919 3.89089 28.2168 4.89976 27.5538 5.80213C24.6356 2.80715 20.5624 0.941128 16.0603 0.941128C7.20413 0.941128 0 8.14607 0 17.0006C0 21.6424 1.98133 25.8288 5.14021 28.7632L5.4919 29.0748C4.90459 28.5958 4.81428 27.7333 5.29029 27.1455C5.76922 26.5574 6.63252 26.4663 7.22011 26.9426C7.80927 27.4199 7.89903 28.2845 7.422 28.8734C6.94674 29.4626 6.08187 29.5516 5.4935 29.0761L5.73283 29.2881C8.52702 31.6408 12.1289 33.0619 16.0603 33.0619C24.5254 33.0619 31.4764 26.4743 32.0714 18.1595C32.512 14.0884 31.3096 8.91904 29.2631 2.77132Z" fill="#2190B4"/>
<path d="M123.324 10.0915H122.763V10.8342H123.324C123.505 10.8342 123.704 10.6876 123.704 10.4716C123.704 10.2381 123.505 10.0915 123.324 10.0915ZM123.67 11.9302L123.125 11.1015H122.763V11.9302H122.47V9.8323H123.324C123.678 9.8323 124.007 10.0833 124.007 10.4716C124.007 10.9375 123.591 11.0932 123.471 11.0932L124.032 11.9302H123.67ZM123.169 9.32304C122.305 9.32304 121.614 10.0137 121.614 10.8775C121.614 11.7318 122.305 12.4314 123.169 12.4314C124.023 12.4314 124.723 11.7318 124.723 10.8775C124.723 10.0137 124.023 9.32304 123.169 9.32304ZM123.169 12.708C122.158 12.708 121.338 11.8874 121.338 10.8775C121.338 9.858 122.158 9.04654 123.169 9.04654C124.187 9.04654 124.999 9.858 124.999 10.8775C124.999 11.8874 124.187 12.708 123.169 12.708Z" fill="#2190B4"/>
</g>
<defs>
<clipPath id="clip0_13_574">
<rect width="125" height="32.1238" fill="#2190B4" transform="translate(0 0.93811)"/>
</clipPath>
</defs>
</svg>
