<svg width="591" height="362" viewBox="0 0 591 362" fill="none" xmlns="http://www.w3.org/2000/svg">
<g clip-path="url(#clip0_53_715)">
<path d="M292.029 361.239C290.083 361.239 288.149 360.729 286.443 359.746L268.66 349.218C266.004 347.733 267.3 347.207 268.176 346.905C271.717 345.665 272.436 345.385 276.216 343.238C276.613 343.011 277.133 343.091 277.54 343.331L291.201 351.438C291.695 351.705 292.395 351.705 292.852 351.438L346.119 320.691C346.612 320.411 346.932 319.838 346.932 319.251V257.785C346.932 257.172 346.612 256.625 346.108 256.318L292.863 225.598C292.369 225.305 291.716 225.305 291.223 225.598L237.988 256.318C237.472 256.612 237.144 257.185 237.144 257.772V319.238C237.144 319.825 237.464 320.385 237.971 320.665L252.557 329.091C260.477 333.051 265.317 328.385 265.317 323.691V263.025C265.317 262.158 265.997 261.492 266.864 261.492H273.611C274.451 261.492 275.144 262.158 275.144 263.025V323.718C275.144 334.278 269.384 340.345 259.371 340.345C256.291 340.345 253.864 340.345 247.091 337.011L233.117 328.958C229.664 326.958 227.531 323.225 227.531 319.238V257.772C227.531 253.772 229.664 250.038 233.117 248.065L286.437 217.305C289.811 215.398 294.291 215.398 297.637 217.305L350.891 248.078C354.331 250.065 356.477 253.785 356.477 257.785V319.251C356.477 323.238 354.331 326.958 350.891 328.958L297.637 359.718C295.931 360.705 293.997 361.211 292.024 361.211" fill="white"/>
<path d="M308.483 318.885C285.176 318.885 280.29 308.186 280.29 299.213C280.29 298.359 280.978 297.679 281.832 297.679H288.712C289.472 297.679 290.112 298.233 290.232 298.983C291.272 305.994 294.366 309.53 308.459 309.53C319.685 309.53 324.459 306.994 324.459 301.041C324.459 297.614 323.099 295.067 305.659 293.361C291.072 291.921 282.059 288.707 282.059 277.041C282.059 266.294 291.126 259.894 306.312 259.894C323.365 259.894 331.819 265.814 332.885 278.534C332.925 278.974 332.765 279.401 332.472 279.721C332.179 280.028 331.765 280.214 331.339 280.214H324.419C323.699 280.214 323.072 279.708 322.925 279.014C321.259 271.641 317.232 269.281 306.286 269.281C294.032 269.281 292.606 273.548 292.606 276.748C292.606 280.628 294.286 281.761 310.819 283.947C327.192 286.121 334.965 289.187 334.965 300.694C334.965 312.294 325.285 318.947 308.406 318.947M373.285 253.761H375.072C376.539 253.761 376.819 252.734 376.819 252.134C376.819 250.561 375.739 250.561 375.139 250.561H373.299L373.285 253.761ZM371.112 248.721H375.072C376.432 248.721 379.099 248.721 379.099 251.761C379.099 253.881 377.739 254.321 376.925 254.588C378.512 254.694 378.619 255.734 378.832 257.201C378.939 258.121 379.112 259.708 379.432 260.241H376.992C376.925 259.708 376.552 256.774 376.552 256.614C376.392 255.961 376.165 255.641 375.352 255.641H373.339V260.254H371.112V248.721ZM366.352 254.454C366.352 259.228 370.205 263.094 374.939 263.094C379.712 263.094 383.565 259.148 383.565 254.454C383.565 249.668 379.659 245.868 374.925 245.868C370.259 245.868 366.339 249.614 366.339 254.441M385.219 254.481C385.219 260.134 380.592 264.748 374.952 264.748C369.352 264.748 364.685 260.188 364.685 254.481C364.685 248.668 369.459 244.214 374.952 244.214C380.485 244.214 385.205 248.681 385.205 254.481" fill="white"/>
<path fill-rule="evenodd" clip-rule="evenodd" d="M127.082 120.733C127.082 118.28 125.788 116.026 123.671 114.806L67.1966 82.3129C66.2433 81.7529 65.1753 81.4596 64.0926 81.4196H63.5086C62.426 81.4596 61.358 81.7529 60.3886 82.3129L3.91673 114.806C1.81273 116.033 0.500732 118.286 0.500732 120.739L0.624732 208.259C0.624732 209.473 1.2514 210.606 2.31806 211.206C3.35806 211.846 4.66472 211.846 5.70472 211.206L39.278 191.979C41.398 190.718 42.6913 188.489 42.6913 186.059V145.173C42.6913 142.733 43.9847 140.479 46.098 139.266L60.3913 131.034C61.4526 130.421 62.618 130.117 63.8046 130.117C64.9726 130.117 66.1646 130.418 67.1966 131.033L81.4832 139.262C83.5979 140.475 84.8966 142.729 84.8966 145.169V186.053C84.8966 188.479 86.2072 190.719 88.3166 191.973L121.869 211.186C122.922 211.813 124.233 211.813 125.282 211.186C126.316 210.586 126.972 209.453 126.972 208.239L127.082 120.733ZM393.572 166.301C393.572 166.91 393.248 167.474 392.719 167.775L373.321 178.957C372.795 179.259 372.144 179.259 371.619 178.957L352.219 167.775C351.685 167.473 351.365 166.909 351.365 166.301V143.906C351.365 143.295 351.685 142.733 352.205 142.426L371.592 131.226C372.125 130.919 372.779 130.919 373.312 131.226L392.712 142.426C393.245 142.733 393.565 143.295 393.565 143.906L393.572 166.301ZM398.812 0.431711C397.753 -0.157622 396.465 -0.141622 395.42 0.467711C394.38 1.08104 393.737 2.20104 393.737 3.41437V90.0809C393.737 90.9342 393.284 91.7209 392.545 92.1475C391.812 92.5742 390.899 92.5742 390.159 92.1475L376.012 83.9996C373.905 82.7809 371.311 82.7809 369.196 83.9996L312.703 116.604C310.592 117.817 309.289 120.07 309.289 122.497V187.723C309.289 190.163 310.592 192.403 312.703 193.63L369.196 226.257C371.305 227.47 373.903 227.47 376.019 226.257L432.512 193.617C434.619 192.39 435.925 190.15 435.925 187.71V25.1503C435.925 22.6757 434.579 20.3997 432.419 19.1903L398.812 0.431711ZM586.936 143.317C589.034 142.098 590.326 139.847 590.326 137.421V121.613C590.326 119.181 589.033 116.937 586.93 115.713L530.797 83.1262C528.677 81.8996 526.077 81.8996 523.957 83.1262L467.477 115.726C465.357 116.953 464.064 119.193 464.064 121.633V186.833C464.064 189.286 465.384 191.553 467.504 192.766L523.624 224.753C525.69 225.939 528.224 225.953 530.317 224.793L564.264 205.926C565.33 205.326 566.01 204.193 566.01 202.966C566.01 201.739 565.357 200.593 564.29 199.993L507.464 167.379C506.397 166.779 505.744 165.646 505.744 164.433V143.979C505.744 142.758 506.384 141.633 507.45 141.025L525.13 130.825C526.184 130.211 527.477 130.211 528.53 130.825L546.224 141.025C547.277 141.625 547.93 142.758 547.93 143.971V160.051C547.93 161.265 548.584 162.398 549.637 163.011C550.69 163.611 551.997 163.611 553.05 162.998L586.936 143.317Z" fill="white"/>
<path fill-rule="evenodd" clip-rule="evenodd" d="M526.55 140.266C526.95 140.03 527.452 140.03 527.857 140.266L538.697 146.52C539.102 146.754 539.35 147.186 539.35 147.653V160.173C539.35 160.64 539.102 161.072 538.697 161.306L527.857 167.56C527.452 167.796 526.95 167.796 526.55 167.56L515.717 161.306C515.304 161.072 515.05 160.64 515.05 160.173V147.653C515.05 147.186 515.29 146.754 515.704 146.52L526.55 140.266Z" fill="white"/>
<mask id="mask0_53_715" style="mask-type:luminance" maskUnits="userSpaceOnUse" x="155" y="82" width="127" height="144">
<path d="M214.799 83.4518L158.626 115.874C156.522 117.088 155.231 119.328 155.231 121.749V186.64C155.231 189.062 156.522 191.301 158.626 192.514L214.803 224.962C216.903 226.172 219.492 226.172 221.589 224.962L277.757 192.514C279.851 191.301 281.144 189.061 281.144 186.64V121.749C281.144 119.328 279.851 117.088 277.744 115.874L221.584 83.4518C220.531 82.8478 219.358 82.5452 218.184 82.5452C217.011 82.5452 215.838 82.8478 214.784 83.4518" fill="white"/>
</mask>
<g mask="url(#mask0_53_715)">
<path d="M337.909 110.369L179.623 32.7826L98.4631 198.348L256.745 275.938L337.909 110.369Z" fill="white"/>
</g>
<mask id="mask1_53_715" style="mask-type:luminance" maskUnits="userSpaceOnUse" x="156" y="82" width="124" height="144">
<path d="M156.623 190.76C157.16 191.457 157.832 192.061 158.623 192.514L206.81 220.348L214.836 224.961C216.036 225.654 217.404 225.948 218.748 225.848C219.196 225.812 219.644 225.728 220.082 225.604L279.327 117.124C278.873 116.63 278.343 116.217 277.748 115.87L240.967 94.6305L221.524 83.4438C220.972 83.1238 220.374 82.8972 219.764 82.7372L156.623 190.76Z" fill="white"/>
</mask>
<g mask="url(#mask1_53_715)">
<path d="M88.1858 133.317L199.952 284.587L347.765 175.38L235.992 24.1133L88.1858 133.317Z" fill="white"/>
</g>
<mask id="mask2_53_715" style="mask-type:luminance" maskUnits="userSpaceOnUse" x="158" y="82" width="124" height="144">
<path d="M217.514 82.5825C216.571 82.6759 215.65 82.9692 214.8 83.4518L158.787 115.781L219.187 225.794C220.027 225.674 220.854 225.394 221.6 224.962L277.774 192.514C279.507 191.509 280.694 189.808 281.054 187.88L219.48 82.6932C219.027 82.6038 218.574 82.5572 218.107 82.5572C217.92 82.5572 217.734 82.5665 217.547 82.5838" fill="white"/>
</mask>
<g mask="url(#mask2_53_715)">
<path d="M158.786 82.5572V225.797H281.029V82.5572H158.786Z" fill="white"/>
</g>
</g>
<defs>
<clipPath id="clip0_53_715">
<rect width="589.827" height="361.238" fill="white" transform="translate(0.5)"/>
</clipPath>
</defs>
</svg>
