<svg width="577" height="594" viewBox="0 0 577 594" fill="none" xmlns="http://www.w3.org/2000/svg">
<path d="M288.321 381.979C286.475 448 288.785 514.481 295.245 530.639C301.709 546.796 315.543 578.223 363.112 568.032C402.853 559.512 417.313 543.024 423.588 506.631C428.209 479.855 437.119 405.492 438.261 390.256" stroke="white" stroke-width="16.6201" stroke-linecap="round" stroke-linejoin="round"/>
<path d="M231.305 51.008C231.305 51.008 15.9438 -37.0133 25.9558 163.153C28.0851 205.737 86.9944 485.372 157.253 400.908C182.928 370.02 206.148 345.795 206.148 345.795" stroke="white" stroke-width="16.6201" stroke-linecap="round" stroke-linejoin="round"/>
<path d="M347.632 34.9427C340.177 37.28 467.429 -11.576 539.748 80.832C565.293 113.477 535.691 246.857 464.877 351.937" stroke="white" stroke-width="16.6201" stroke-linecap="round" stroke-linejoin="round"/>
<path d="M464.876 351.937C464.876 351.937 469.49 374.652 536.561 360.808C565.948 354.739 548.262 377.84 518.458 391.681C493.998 403.033 439.16 405.943 438.264 390.256C435.958 349.783 467.125 362.079 464.876 351.937ZM464.876 351.937C462.842 342.804 448.905 333.84 439.685 311.487C431.636 291.976 329.29 142.355 468.068 164.576C473.152 163.524 431.873 32.5733 301.997 30.444C172.15 28.3147 176.41 190.127 176.41 190.127" stroke="white" stroke-width="16.6201" stroke-linecap="round" stroke-linejoin="bevel"/>
<path d="M251.972 365.779C233.869 386 239.193 389.551 203.008 397.001C166.396 404.548 187.907 417.979 201.945 421.488C218.969 425.748 258.355 431.779 284.967 394.516C293.071 383.171 284.919 365.068 273.787 360.453C268.408 358.225 261.216 355.433 251.972 365.779Z" stroke="white" stroke-width="16.6201" stroke-linecap="round" stroke-linejoin="round"/>
<path d="M250.787 365.425C248.963 353.536 254.693 339.388 260.835 322.836C270.064 298.001 291.359 273.163 274.324 194.384C261.627 135.679 176.463 182.167 176.409 190.127C176.357 198.084 180.261 230.473 174.987 268.191C168.104 317.408 206.304 359.033 250.292 354.775" stroke="white" stroke-width="16.6201" stroke-linecap="round" stroke-linejoin="round"/>
<path d="M230.522 188.933C230.138 191.652 235.5 198.907 242.49 199.876C249.469 200.849 255.442 195.18 255.821 192.464C256.2 189.745 250.845 186.751 243.852 185.777C236.869 184.803 230.893 186.221 230.524 188.933H230.522Z" fill="white" stroke="white" stroke-width="5.54"/>
<path d="M443.088 183.391C443.466 186.109 438.112 193.364 431.12 194.333C424.136 195.307 418.162 189.637 417.78 186.921C417.41 184.203 422.766 181.208 429.752 180.235C436.737 179.261 442.709 180.679 443.088 183.392V183.391Z" fill="white" stroke="white" stroke-width="2.77"/>
<path d="M468.068 164.576C469.219 185.901 463.475 200.427 462.751 223.128C461.679 256.125 478.483 293.893 453.163 331.708" stroke="white" stroke-width="16.6201" stroke-linecap="round" stroke-linejoin="round"/>
</svg>
