<svg width="70" height="70" viewBox="0 0 70 70" fill="none" xmlns="http://www.w3.org/2000/svg">
<g clip-path="url(#clip0_13_602)">
<path d="M68.7149 42.9415C68.6749 42.8193 68.6198 42.7026 68.5507 42.5941C68.1453 41.8265 67.1601 41.5972 65.6125 41.9172C60.7904 42.912 58.9231 42.2998 58.2461 41.8615C62.1603 35.8875 65.3774 28.6723 67.116 21.9415C67.9076 18.877 69.4441 11.664 67.4724 8.141C67.3465 7.89987 67.1992 7.67048 67.0323 7.45559C63.2716 2.65009 57.7521 0.0723374 51.0706 0.00146243C46.711 -0.0446209 42.9899 1.01092 41.9819 1.39971C41.4827 1.30653 40.9809 1.22717 40.4772 1.16171C39.2146 0.933075 37.9353 0.808407 36.6523 0.788962C33.2042 0.735296 30.2246 1.55955 27.7571 3.24071C25.2566 2.30417 13.7897 -1.5572 6.69318 3.47055C2.72972 6.27842 0.900099 11.2971 1.25477 18.3875C1.37406 20.7734 2.73322 28.1117 4.87814 35.1397C6.21922 39.5337 7.61602 43.0203 9.05889 45.5872C10.6718 48.487 12.3428 50.2343 14.0589 50.8066C15.3638 51.2415 17.3626 51.2269 19.4784 48.6835C21.8152 45.8733 24.1168 43.3583 25.1501 42.2468C26.4192 42.9336 27.7938 43.304 29.2043 43.3469C29.2046 43.3509 29.2049 43.3549 29.2055 43.3589C28.9599 43.6515 28.7195 43.9485 28.4845 44.2496C27.496 45.5044 27.2904 45.7654 24.1089 46.4205C23.2041 46.6072 20.8002 47.1027 20.7652 48.7874C20.7579 49.1444 20.8612 49.4608 21.0333 49.7405C21.6951 50.9746 23.7213 51.5188 23.9937 51.5871C27.886 52.5598 31.2982 51.8554 33.8269 49.6076C33.7774 56.1146 34.053 62.4916 34.8344 64.4458C35.4795 66.0584 37.0563 70.0006 42.0362 70C42.7668 70 43.5712 69.9151 44.4558 69.7255C49.6531 68.6111 51.91 66.3142 52.7829 61.25C53.2213 58.7105 53.9543 52.8637 54.3544 49.2882C54.4037 49.0831 54.4586 48.9361 54.5207 48.8909C54.5227 48.8895 54.724 48.7536 55.7667 48.9805C55.8093 48.9897 55.8525 48.9963 55.8959 49.0003L56.6364 49.0653L56.6799 49.0683C59.1497 49.1803 62.2548 48.6523 64.0626 47.8118C65.9403 46.9403 69.3292 44.8009 68.7149 42.9415ZM6.91543 34.6398C4.74689 27.5354 3.47989 20.3916 3.37956 18.3884C3.06281 12.0552 4.5961 7.64663 7.93627 5.28471C13.2933 1.49713 22.0524 3.70738 25.7513 4.90555C25.7419 4.91488 25.732 4.92334 25.7227 4.93296C19.8199 10.8946 19.9599 21.0796 19.9745 21.7023C19.9739 21.9424 19.9938 22.2825 20.0218 22.7503C20.1233 24.4633 20.3123 27.6515 19.8074 31.2623C19.3381 34.6176 20.3723 37.9018 22.6447 40.2725C22.8798 40.5178 23.1254 40.7482 23.3791 40.9649C22.3676 42.0481 20.1696 44.4433 17.8302 47.2579C16.1744 49.2485 15.0311 48.867 14.6551 48.7416C13.5121 48.3604 12.2838 47.0292 11.044 44.8849C9.64514 42.4378 8.23377 38.9591 6.91543 34.6398ZM24.4364 49.4772C23.9374 49.3523 23.4824 49.147 23.1759 48.9603C23.4351 48.8454 23.8683 48.6973 24.5855 48.5494C28.3284 47.7791 28.9065 47.2351 30.1689 45.6321C30.4582 45.2646 30.786 44.8484 31.2401 44.3412C31.3378 44.2317 31.4111 44.1026 31.4551 43.9626C31.9533 43.5213 32.2496 43.6421 32.7294 43.841C33.1844 44.0294 33.6271 44.5993 33.8071 45.227C33.892 45.5233 33.9876 46.086 33.6753 46.5232C31.0377 50.2151 27.1956 50.1673 24.4364 49.4772ZM30.5439 37.8455L30.3908 38.2568C30.0029 39.2968 29.6421 40.2637 29.4184 41.1822C27.4718 41.176 25.5777 40.3445 24.1378 38.8418C22.3064 36.9311 21.4746 34.2732 21.8555 31.549C22.3886 27.7343 22.1918 24.4125 22.0859 22.6281C22.0713 22.3781 22.0582 22.1594 22.0503 21.9867C22.9128 21.2223 26.9092 19.0811 29.7588 19.7339C31.0593 20.032 31.8518 20.9172 32.1811 22.4405C33.8861 30.3266 32.4068 33.6134 31.218 36.2548C30.973 36.799 30.7417 37.3132 30.5439 37.8455ZM52.0214 51.182C51.9721 51.6976 51.917 52.2786 51.8411 52.92L51.4153 54.1984C51.3815 54.2997 51.3636 54.4057 51.3622 54.5125C51.345 55.8971 51.2047 56.4051 51.0268 57.048C50.8419 57.7165 50.6322 58.4745 50.5036 60.1323C50.1827 64.2574 47.9421 66.6269 43.4534 67.5888C39.0332 68.537 38.2492 66.1398 37.5582 64.0255C37.4875 63.8039 37.4127 63.5835 37.3339 63.3646C36.7057 61.656 36.7766 59.2466 36.8749 55.9122C36.923 54.2754 36.8022 50.3668 35.9118 48.1941C35.9246 47.339 35.9427 46.4707 35.9672 45.593C35.9701 45.4819 35.9551 45.371 35.9226 45.2646C35.8944 45.0596 35.8516 44.8569 35.7945 44.658C35.4369 43.4088 34.5657 42.3637 33.5204 41.9306C33.1051 41.7585 32.3426 41.4429 31.4268 41.6771C31.6222 40.8721 31.9609 39.9636 32.3281 38.9795L32.4823 38.5653C32.6559 38.0987 32.8732 37.6154 33.1036 37.1035C34.3476 34.3397 36.0512 30.5547 34.202 22.0033C33.5096 18.8005 31.1967 17.2366 27.6909 17.5998C25.5888 17.8173 23.6661 18.6655 22.7069 19.1517C22.5145 19.2492 22.3241 19.3504 22.1358 19.4553C22.4035 16.2283 23.415 10.1975 27.1982 6.38196C27.4792 6.09879 27.7745 5.83011 28.0828 5.57696C28.2359 5.54711 28.3802 5.48288 28.5049 5.38913C30.6994 3.72488 33.4472 2.90821 36.6774 2.961C37.8706 2.98055 39.0157 3.05988 40.1021 3.19725C45.7576 4.23092 49.5635 7.41709 51.8735 10.1468C54.2486 12.9535 55.5345 15.7803 56.0479 17.3052C52.1885 16.9126 49.5629 17.675 48.2321 19.5773C45.337 23.7157 49.8158 31.7482 51.9686 35.6084C52.3632 36.316 52.7042 36.9273 52.8112 37.1872C53.5121 38.8862 54.4198 40.0202 55.0824 40.8482C55.2854 41.102 55.4826 41.3481 55.6322 41.5628C54.4632 41.8997 52.3632 42.6784 52.5546 46.5707C52.5187 47.0266 52.4312 47.8742 52.3113 48.9472C52.1769 49.553 52.1066 50.2898 52.0214 51.182ZM54.6187 46.4538C54.5006 44.0283 55.4036 43.7748 56.3591 43.5065C56.4913 43.4702 56.6226 43.4308 56.7528 43.388C56.8761 43.4973 57.0069 43.5976 57.1442 43.6885C58.8076 44.7866 61.7593 44.9173 65.9141 44.0805C65.3261 44.5964 64.4006 45.2454 63.1336 45.8337C61.9383 46.3887 59.9378 46.8049 58.0373 46.8942C55.9382 46.9922 54.8701 46.6588 54.6187 46.4538ZM56.2797 19.4128C56.2625 20.4359 56.1216 21.3646 55.9723 22.3344C55.8119 23.3774 55.6456 24.456 55.6036 25.765C55.5622 27.039 55.7215 28.3634 55.8755 29.6444C56.1864 32.2315 56.5055 34.8953 55.2703 37.5235C55.0652 37.1601 54.8825 36.7845 54.7231 36.3988C54.5694 36.0267 54.2363 35.4288 53.7749 34.6016C51.9794 31.3813 47.7741 23.8403 49.9269 20.7632C51.0338 19.1803 53.8376 19.112 56.2797 19.4128ZM56.9459 39.8694C56.8635 39.7645 56.7806 39.6601 56.6971 39.5561L56.5936 39.4266C58.7116 35.9281 58.2975 32.4669 57.9288 29.3977C57.7774 28.1383 57.6345 26.9488 57.6707 25.8318C57.7083 24.6473 57.8649 23.6317 58.0163 22.6494C58.2027 21.439 58.392 20.1868 58.3398 18.7104C58.3788 18.5555 58.3946 18.3727 58.3742 18.1557C58.2409 16.7396 56.6245 12.5032 53.3301 8.66775C51.5579 6.6048 48.9854 4.30092 45.4875 2.71921C47.019 2.4083 49.0831 2.12567 51.392 2.177C57.3755 2.31 62.1096 4.54971 65.4626 8.834C65.5338 8.92701 65.5988 9.02464 65.6571 9.12625C67.7661 13.0801 64.8515 27.4286 56.9459 39.8694ZM31.2308 22.0305C31.1579 22.5537 30.3299 23.2628 29.4193 23.2628C29.3403 23.2628 29.2615 23.2573 29.1833 23.2464C28.637 23.1706 28.0852 22.8264 27.7078 22.3259C27.5742 22.1495 27.3569 21.8068 27.4001 21.4964C27.4161 21.3795 27.4762 21.2091 27.6699 21.0624C28.0146 20.8017 28.6959 20.7048 29.4479 20.8095C30.3704 20.9382 31.3221 21.3748 31.2308 22.0305ZM54.3614 20.8305C54.3938 21.0615 54.2185 21.4168 53.9149 21.7353C53.7157 21.9444 53.2966 22.3073 52.7252 22.3863C52.6527 22.3964 52.5796 22.4014 52.5064 22.4015C51.6504 22.4015 50.9273 21.7178 50.8711 21.3173C50.8011 20.8025 51.6413 20.4114 52.5076 20.2907C53.3738 20.1699 54.29 20.3163 54.3614 20.8305Z" fill="white"/>
</g>
<defs>
<clipPath id="clip0_13_602">
<rect width="70" height="70" fill="white"/>
</clipPath>
</defs>
</svg>
