<svg width="246" height="63" viewBox="0 0 246 63" fill="none" xmlns="http://www.w3.org/2000/svg">
<g clip-path="url(#clip0_53_755)">
<path d="M81.2312 43.8055C80.4797 43.3998 79.9016 42.531 79.9016 41.3731C79.9016 39.8122 81.1156 38.5466 82.7401 38.5466C83.3156 38.5466 83.8385 38.7159 84.2407 38.9476C87.1953 40.9164 90.2625 41.9007 93.036 41.9007C96.0443 41.9007 97.7797 40.6263 97.7797 38.5987V38.484C97.7797 36.1116 94.5417 35.3028 90.9516 34.2044C86.4412 32.9304 81.4073 31.081 81.4073 25.2362V25.119C81.4073 19.332 86.2093 15.8039 92.2849 15.8039C95.526 15.8039 98.938 16.731 101.889 18.2908C102.875 18.8132 103.566 19.7394 103.566 20.9512C103.566 22.5731 102.295 23.7908 100.675 23.7908C100.094 23.7908 99.7469 23.6747 99.2891 23.4419C96.7969 22.1674 94.2521 21.356 92.112 21.356C89.3907 21.356 87.8281 22.632 87.8281 24.369V24.4815C87.8281 26.7388 91.126 27.6622 94.7145 28.8216C99.1697 30.2112 104.204 32.2351 104.204 37.7315V37.8487C104.204 44.2706 99.2251 47.4492 92.862 47.4492C88.988 47.4492 84.764 46.2383 81.2312 43.8055Z" fill="white"/>
<path d="M131.326 31.657V31.5398C131.326 25.6409 127.333 21.7638 122.591 21.7638C117.846 21.7638 113.681 25.6982 113.681 31.5398V31.657C113.681 37.5007 117.846 41.4389 122.591 41.4389C127.393 41.4389 131.326 37.6753 131.326 31.657ZM106.852 19.331C106.852 17.3674 108.354 15.8029 110.325 15.8029C112.291 15.8029 113.854 17.3674 113.854 19.331V21.417C116.11 18.2362 119.292 15.6894 124.269 15.6894C131.442 15.6894 138.444 21.357 138.444 31.5398V31.657C138.444 41.7837 131.5 47.5102 124.269 47.5102C119.178 47.5102 115.995 44.9617 113.854 42.1326V52.9461C113.854 54.9206 112.291 56.4253 110.325 56.4253C108.417 56.4253 106.852 54.9206 106.852 52.9461V19.331Z" fill="white"/>
<path d="M141.096 19.3351C141.096 17.3716 142.596 15.8069 144.564 15.8069C146.536 15.8069 148.096 17.3716 148.096 19.3351V21.0184C148.446 18.3965 152.723 15.8069 155.791 15.8069C157.988 15.8069 159.263 17.2523 159.263 19.2763C159.263 21.1263 158.047 22.3435 156.484 22.632C151.508 23.5003 148.096 27.8544 148.096 33.8783V43.9721C148.096 45.8836 146.536 47.4449 144.564 47.4449C142.656 47.4449 141.096 45.9397 141.096 43.9721V19.3351Z" fill="white"/>
<path d="M161.911 19.3492C161.911 17.3825 163.42 15.8179 165.384 15.8179C167.351 15.8179 168.913 17.3825 168.913 19.3492V43.9779C168.913 45.9424 167.351 47.4449 165.384 47.4449C163.473 47.4449 161.911 45.9424 161.911 43.9779V19.3492Z" fill="white"/>
<path d="M172.443 19.3627C172.443 17.396 173.948 15.8351 175.912 15.8351C177.882 15.8351 179.443 17.396 179.443 19.3627V20.7992C181.414 17.9632 184.244 15.8174 188.988 15.8174C195.874 15.8174 199.868 20.4482 199.868 27.506V43.9736C199.868 45.9398 198.362 47.446 196.395 47.446C194.428 47.446 192.867 45.9398 192.867 43.9736V29.6476C192.867 24.9055 190.495 22.184 186.328 22.184C182.279 22.184 179.443 25.019 179.443 29.767V43.9736C179.443 45.9398 177.882 47.446 175.912 47.446C174.004 47.446 172.443 45.9398 172.443 43.9736V19.3627Z" fill="white"/>
<path d="M218.373 41.3747C213.567 41.3747 209.636 37.6127 209.636 31.5946V31.481C209.636 25.5805 213.625 21.7034 218.373 21.7034C223.119 21.7034 227.284 25.6389 227.284 31.481V31.5946C227.284 37.4398 223.119 41.3747 218.373 41.3747ZM230.633 15.7425C228.669 15.7425 227.107 17.3081 227.107 19.2722V21.3545C224.848 18.1737 221.669 15.6283 216.696 15.6283C209.517 15.6283 202.519 21.2961 202.519 31.481V31.5946C202.519 41.7211 209.46 47.4461 216.696 47.4461C221.757 47.4461 224.932 44.9279 227.075 42.1127C226.724 47.6143 223.356 50.519 217.448 50.519C213.921 50.519 210.853 49.6482 208.072 48.0831C207.725 47.9138 207.327 47.7993 206.804 47.7993C205.184 47.7993 203.849 49.1315 203.849 50.6888C203.849 52.0206 204.603 53.0039 205.821 53.4669C209.519 55.2612 213.335 56.1873 217.619 56.1873C223.119 56.1873 227.401 54.8576 230.179 52.0789C232.719 49.531 234.108 45.717 234.108 40.5649V19.2722C234.108 17.3081 232.604 15.7425 230.633 15.7425Z" fill="white"/>
<path d="M168.941 7.38726C168.941 9.33406 167.36 10.917 165.411 10.917C163.46 10.917 161.883 9.33406 161.883 7.38726C161.883 5.43513 163.46 3.85913 165.411 3.85913C167.36 3.85913 168.941 5.43513 168.941 7.38726Z" fill="white"/>
<path d="M57.7427 45.3539C49.9812 55.695 33.4016 52.2044 22.7719 52.7065C22.7719 52.7065 20.8901 52.8112 18.9948 53.1231C18.9948 53.1231 19.7115 52.8174 20.6255 52.5023C28.0912 49.9205 31.6193 49.4018 36.1557 47.0716C44.6792 42.7055 53.162 33.195 54.888 23.3154C51.6437 32.8174 41.7765 40.9955 32.7921 44.3164C26.6427 46.5856 15.5219 48.794 15.5203 48.795C15.5255 48.8028 15.0771 48.5622 15.0708 48.557C7.50781 44.8774 7.28959 28.4971 21.0255 23.217C27.0479 20.9003 32.8084 22.1727 39.3188 20.6231C46.2625 18.9722 54.3047 13.7674 57.5735 6.9627C61.238 17.832 65.6401 34.8372 57.7427 45.3539ZM57.8776 3.59456C56.9536 5.78976 55.826 7.7679 54.526 9.53723C48.8041 3.66483 40.8177 0.00602996 31.9901 0.00602996C14.6255 0.00602996 0.5 14.1331 0.5 31.4946C0.5 40.596 4.38489 48.8044 10.5786 54.5581L11.2682 55.169C10.1167 54.2299 9.93959 52.5388 10.8729 51.3862C11.812 50.2331 13.5047 50.0544 14.6568 50.9883C15.812 51.9242 15.988 53.6195 15.0527 54.7742C14.1208 55.9294 12.425 56.1039 11.2714 55.1716L11.7406 55.5872C17.2193 60.2002 24.2817 62.9867 31.9901 62.9867C48.588 62.9867 62.2172 50.07 63.3839 33.767C64.2479 25.7846 61.8901 15.6487 57.8776 3.59456Z" fill="white"/>
<path d="M242.306 17.9476H241.206V19.4039H242.306C242.662 19.4039 243.052 19.1164 243.052 18.6929C243.052 18.2351 242.662 17.9476 242.306 17.9476ZM242.985 21.5528L241.917 19.9279H241.206V21.5528H240.632V17.4393H242.306C243.001 17.4393 243.645 17.9315 243.645 18.6929C243.645 19.6064 242.83 19.9116 242.594 19.9116L243.696 21.5528H242.985ZM242.002 16.4408C240.309 16.4408 238.954 17.7949 238.954 19.4888C238.954 21.1637 240.309 22.5356 242.002 22.5356C243.677 22.5356 245.049 21.1637 245.049 19.4888C245.049 17.7949 243.677 16.4408 242.002 16.4408ZM242.002 23.0779C240.021 23.0779 238.413 21.4689 238.413 19.4888C238.413 17.4897 240.021 15.8987 242.002 15.8987C244 15.8987 245.592 17.4897 245.592 19.4888C245.592 21.4689 244 23.0779 242.002 23.0779Z" fill="white"/>
</g>
<defs>
<clipPath id="clip0_53_755">
<rect width="245.093" height="62.9867" fill="white" transform="translate(0.5)"/>
</clipPath>
</defs>
</svg>
