<svg width="61" height="63" viewBox="0 0 61 63" fill="none" xmlns="http://www.w3.org/2000/svg">
<g clip-path="url(#clip0_13_554)">
<mask id="mask0_13_554" style="mask-type:luminance" maskUnits="userSpaceOnUse" x="0" y="2" width="61" height="61">
<path d="M60.5 2.56628H0.5V62.5663H60.5V2.56628Z" fill="white"/>
</mask>
<g mask="url(#mask0_13_554)">
<mask id="mask1_13_554" style="mask-type:luminance" maskUnits="userSpaceOnUse" x="0" y="2" width="61" height="61">
<path d="M60.5 2.56628H0.5V62.5663H60.5V2.56628Z" fill="white"/>
</mask>
<g mask="url(#mask1_13_554)">
<path d="M3.3125 2.56628C1.755 2.56628 0.5 3.82128 0.5 5.37879V59.7538C0.5 61.3114 1.755 62.5663 3.3125 62.5663H57.6875C59.2451 62.5663 60.5 61.3114 60.5 59.7538V5.37879C60.5 3.82128 59.2451 2.56628 57.6875 2.56628H3.3125ZM46.7201 26.9413C48.2501 26.9413 49.6049 27.0338 50.7875 27.2188C51.9029 27.3859 52.9973 27.6708 54.0524 28.0688V34.2139C53.546 33.8635 53.0078 33.5614 52.445 33.3112C51.8645 33.0502 51.2654 32.833 50.6525 32.6614C49.4915 32.3377 48.2927 32.1697 47.0876 32.1613C46.3376 32.1613 45.6551 32.2312 45.0401 32.3764C44.492 32.4937 43.9661 32.6977 43.4825 32.9812C43.0574 33.2413 42.7325 33.5539 42.5 33.9163C42.2663 34.2817 42.1445 34.7077 42.1499 35.1412C42.1499 35.6314 42.2825 36.0739 42.5399 36.4639C42.8 36.8539 43.1699 37.2238 43.6475 37.5739C44.1251 37.9237 44.705 38.2639 45.3875 38.5987C46.07 38.9362 46.8425 39.2839 47.7026 39.6388C48.8774 40.1314 49.9325 40.6564 50.8676 41.2087C51.8024 41.7637 52.6049 42.3913 53.2751 43.0912C53.945 43.7887 54.455 44.5864 54.8099 45.4837C55.1651 46.3813 55.3451 47.4238 55.3451 48.6163C55.3451 50.2588 55.0325 51.6412 54.4124 52.7563C53.8067 53.8561 52.9373 54.7879 51.8825 55.4689C50.7455 56.1898 49.4852 56.695 48.1649 56.9587C46.7501 57.2587 45.2576 57.4087 43.6901 57.4087C42.1472 57.4156 40.6073 57.2782 39.0899 56.9989C37.7774 56.7718 36.5042 56.3566 35.3099 55.7662V49.1914C37.5695 51.1141 40.4357 52.1767 43.4024 52.1914C44.2349 52.1914 44.9624 52.1164 45.5825 51.9664C46.205 51.8164 46.7225 51.6064 47.1401 51.3412C47.555 51.0712 47.8649 50.7562 48.0725 50.3914C48.3017 49.9663 48.4061 49.4851 48.3734 49.0033C48.3407 48.5215 48.1721 48.0589 47.8874 47.6689C47.516 47.1772 47.0618 46.7542 46.5449 46.4188C45.9041 45.994 45.2294 45.6229 44.5274 45.3088C43.6955 44.929 42.8564 44.5654 42.0101 44.2189C39.7151 43.2613 38.0051 42.0889 36.8774 40.7062C35.7524 39.3238 35.1875 37.6513 35.1875 35.6938C35.1875 34.1587 35.495 32.8414 36.11 31.7389C36.725 30.6364 37.5599 29.7288 38.6201 29.0163C39.7412 28.2766 40.9859 27.7441 42.2951 27.4438C43.745 27.1019 45.2303 26.9332 46.7201 26.9413ZM8.9375 27.4113H32.8451V32.8264H24.265V56.9413H17.4725V32.8264H8.9375V27.4113Z" fill="white"/>
</g>
</g>
</g>
<defs>
<clipPath id="clip0_13_554">
<rect width="60" height="63" fill="white" transform="translate(0.5)"/>
</clipPath>
</defs>
</svg>
