<svg width="513" height="512" viewBox="0 0 513 512" fill="none" xmlns="http://www.w3.org/2000/svg">
<g clip-path="url(#clip0_53_767)">
<path fill-rule="evenodd" clip-rule="evenodd" d="M50.5 0H462.5C490.114 0 512.5 22.3858 512.5 50V462C512.5 489.614 490.114 512 462.5 512H50.5C22.8858 512 0.5 489.614 0.5 462V50C0.5 22.3858 22.8858 0 50.5 0ZM317.439 457.485V407.424C326.516 415.038 336.376 420.748 347.018 424.554C357.661 428.361 368.407 430.264 379.258 430.264C385.623 430.264 391.178 429.691 395.926 428.543C400.673 427.396 404.638 425.806 407.82 423.772C411.002 421.738 413.376 419.34 414.941 416.576C416.506 413.812 417.289 410.814 417.289 407.581C417.289 403.2 416.037 399.289 413.533 395.848C411.028 392.406 407.611 389.225 403.281 386.305C398.952 383.385 393.813 380.569 387.866 377.857C381.919 375.145 375.502 372.382 368.616 369.566C351.087 362.265 338.019 353.348 329.412 342.815C320.804 332.281 316.5 319.557 316.5 304.643C316.5 292.962 318.848 282.924 323.543 274.529C328.238 266.133 334.628 259.224 342.714 253.8C350.801 248.377 360.165 244.388 370.807 241.833C381.449 239.278 392.717 238 404.612 238C416.297 238 426.653 238.704 435.678 240.112C444.703 241.52 453.024 243.684 460.64 246.604V293.38C456.884 290.772 452.789 288.478 448.355 286.496C443.92 284.515 439.356 282.872 434.661 281.568C429.965 280.265 425.296 279.3 420.653 278.674C416.01 278.049 411.602 277.736 407.429 277.736C401.69 277.736 396.474 278.283 391.778 279.378C387.083 280.473 383.119 282.012 379.884 283.993C376.65 285.975 374.146 288.347 372.372 291.111C370.598 293.875 369.711 296.978 369.711 300.419C369.711 304.174 370.703 307.537 372.685 310.51C374.667 313.482 377.484 316.298 381.136 318.958C384.788 321.617 389.222 324.224 394.439 326.78C399.656 329.335 405.551 331.968 412.124 334.68C421.097 338.434 429.157 342.423 436.304 346.647C443.451 350.871 449.581 355.643 454.693 360.962C459.806 366.281 463.718 372.356 466.431 379.187C469.144 386.018 470.5 393.97 470.5 403.044C470.5 415.559 468.126 426.066 463.379 434.566C458.632 443.066 452.189 449.95 444.051 455.216C435.913 460.483 426.444 464.264 415.645 466.558C404.846 468.853 393.448 470 381.449 470C369.137 470 357.426 468.957 346.314 466.871C335.202 464.785 325.577 461.657 317.439 457.485ZM297.5 284.082H233.28V467H182.406V284.082H118.5V243H297.5V284.082Z" fill="white"/>
</g>
<defs>
<clipPath id="clip0_53_767">
<rect width="512" height="512" fill="white" transform="translate(0.5)"/>
</clipPath>
</defs>
</svg>
